<?xml version="1.0" encoding="UTF-8"?>
<svg width="127mm" height="71.438mm" version="1.1" viewBox="0 0 127 71.437" xmlns="http://www.w3.org/2000/svg" xmlns:cc="http://creativecommons.org/ns#" xmlns:dc="http://purl.org/dc/elements/1.1/" xmlns:rdf="http://www.w3.org/1999/02/22-rdf-syntax-ns#">
 <defs>
  <linearGradient id="linearGradient1850" x1="80.226" x2="102.55" y1="103.41" y2="144.97" gradientTransform="matrix(1.5712 0 0 1.3534 -83.211 -134.34)" gradientUnits="userSpaceOnUse">
   <stop stop-color="#bdf087" stop-opacity=".81176" offset="0"/>
   <stop stop-color="#13691e" offset="1"/>
  </linearGradient>
 </defs>
 <metadata>
  <rdf:RDF>
   <cc:Work rdf:about="">
    <dc:format>image/svg+xml</dc:format>
    <dc:type rdf:resource="http://purl.org/dc/dcmitype/StillImage"/>
    <dc:title/>
   </cc:Work>
  </rdf:RDF>
 </metadata>
 <rect width="127" height="71.438" fill="url(#linearGradient1850)" opacity=".99" stroke-width="0"/>
 <rect x="7.441" y="9.559" width="43.505" height="29.747" fill="none" stroke-width=".26458"/>
 <rect x="9.7066" y="18.923" width="44.185" height="33.337" rx="3" ry="3" fill="none" opacity=".99" stroke="#fff" stroke-width="4.3"/>
 <path d="m42.52 35.343-19.857 12.211-0.20395-24.052 10.03 5.921z" fill="#fff" opacity=".99" stroke-width="0"/>
 <path d="m61.069 18.789h51.758v24.112h-51.758z" fill="none"/>
 <g transform="matrix(1.0314 0 0 .96956 5.5885 11.509)" fill="#fff" stroke-width=".3923" aria-label="电视">
  <path d="m59.21 23.452h7.611v-3.7519h1.1792q2.5727 0 2.5727 0.32159 0 0.21439-0.1072 0.42879-0.1072 0.64318-0.1072 1.2864v1.8223h7.611v14.579h-3.6447v-0.96477h-3.9663v1.9295q-0.42879 2.2511 2.3583 1.9295h3.7519q1.7152 0.42879 1.9295-2.3583 1.9295 0.85758 3.3231 1.072-0.64318 4.2879-3.2159 3.9663h-8.2542q-3.6447 0.1072-3.4303-3.4303v-3.1087h-4.1807v2.2511h-3.4303zm7.611 5.5742v-2.6799h-4.1807v2.6799zm3.5375-2.6799v2.6799h3.9663v-2.6799zm-7.7182 5.467v2.5727h4.1807v-2.5727zm7.7182 2.5727h3.9663v-2.5727h-3.9663z"/>
  <path d="m89.333 24.417q-1.2864-2.7871-1.8223-3.5375 1.7152-0.75038 3.4303-1.5008 0.42879 0.75038 1.9295 4.0735l-2.3583 0.96477h3.5375q0.32159 0.1072 0.32159 0.21439-1.1792 4.5023-3.1087 6.8606l2.2511-1.1792q0 0.21439 0.21439 0.42879 1.072 1.7152 1.608 2.5727v-12.649h12.113v14.793h-3.4303v-11.792h-5.5742v11.684h-3.1087v-0.75038q-0.75038 0.53598-1.8223 1.072-0.32159 0.21439-0.53598 0.32159-0.75038-1.8223-1.7152-3.2159v11.363h-3.2159v-9.1117l-1.8223 1.8223q-0.96477-1.3936-2.3583-2.6799 3.6447-2.5727 5.5742-6.7534h-4.8239v-3.0015zm10.291 5.0383v-4.1807h3.2159v4.0735q0 3.0015-0.32159 4.5023 1.608 0 1.3936 0.32159v6.1102q-0.1072 0.75038 0.64318 0.64318h0.64318q0.85757 0.1072 0.85757-0.96477v-1.8223q0.85758 0.32159 2.2511 0.53598 0.64318 0.1072 1.072 0.1072 0.21439 5.467-2.4655 5.0383h-3.7519q-2.3583-0.1072-2.3583-2.0367v-3.9663q-2.3583 3.8591-6.2174 6.4318-0.64318-0.96477-2.6799-2.2511 4.7167-3.1087 6.2174-5.5742 1.5008-2.3583 1.5008-6.9678z"/>
 </g>
</svg>
